<svg xmlns="http://www.w3.org/2000/svg" viewBox="0 0 395.52 83.32451286193682" height="83.32451286193682" width="395.52"><g><svg viewBox="0 0 533.5867956804449 112.41115447925489" height="83.32451286193682" width="395.52"><g transform="matrix(1,0,0,1,0,1.9792605588484449)"><svg viewBox="0 0 395.52 108.452633361558" height="108.452633361558" width="395.52"><g id="textblocktransform"><svg viewBox="0 0 395.52 108.452633361558" height="108.452633361558" width="395.52" id="textblock"><g><svg viewBox="0 0 395.52 108.452633361558" height="108.452633361558" width="395.52"><g transform="matrix(1,0,0,1,0,0)"><svg width="395.52" viewBox="1.54 -35.55 172.98000000000002 47.44" height="108.452633361558" data-palette-color="url(#a83e5936-0172-46c6-aefd-c218d391ffd5)"/></g></svg></g></svg></g></svg></g><g transform="matrix(1,0,0,1,421.12306387346314,0)"><svg viewBox="0 0 112.46373180698176 112.41115447925489" height="112.41115447925489" width="112.46373180698176"><g><svg xmlns="http://www.w3.org/2000/svg" xmlns:xlink="http://www.w3.org/1999/xlink" version="1.1" x="0" y="0" viewBox="0.7607695154586737 0.7749999999999999 30.439230484541326 30.425" enable-background="new 0 0 32 32" xml:space="preserve" height="112.41115447925489" width="112.46373180698176" class="icon-icon-0" data-fill-palette-color="accent" id="icon-0"/></g></svg></g></svg></g><defs/><mask id="7dd72466-e1f3-42a4-808c-d48bb119957e"><g id="SvgjsG1254"><svg viewBox="0 0 395.52 83.32451286193682" height="83.32451286193682" width="395.52"><g><svg viewBox="0 0 533.5867956804449 112.41115447925489" height="83.32451286193682" width="395.52"><g transform="matrix(1,0,0,1,0,1.9792605588484449)"><svg viewBox="0 0 395.52 108.452633361558" height="108.452633361558" width="395.52"><g id="SvgjsG1253"><svg viewBox="0 0 395.52 108.452633361558" height="108.452633361558" width="395.52" id="SvgjsSvg1252"><g><svg viewBox="0 0 395.52 108.452633361558" height="108.452633361558" width="395.52"><g transform="matrix(1,0,0,1,0,0)"><svg width="395.52" viewBox="1.54 -35.55 172.98000000000002 47.44" height="108.452633361558" data-palette-color="url(#a83e5936-0172-46c6-aefd-c218d391ffd5)"><path d="M6.23 0L1.54 0 14.84-35.55 19.68-35.55 33.11 0 28.39 0 24.29-11.06 10.3-11.06 6.23 0ZM17.29-30.96L11.4-14.6 23.19-14.6 17.29-30.96ZM48.29 11.89L48.29 11.89Q46.04 11.89 43.93 11.49 41.82 11.08 40.26 10.52L40.26 10.52 40.62 7.06 41.18 7.06Q42.7 7.69 44.61 8.06 46.53 8.42 48.24 8.42L48.24 8.42Q50.73 8.42 52.46 7.65 54.2 6.88 55.1 5.02 56 3.15 56-0.1L56-0.1Q56-0.66 55.99-1.2 55.98-1.73 55.98-2.27L55.98-2.27Q54.49-0.71 52.55-0.13 50.61 0.44 48.83 0.44L48.83 0.44Q46.12 0.44 43.99-0.51 41.87-1.46 40.4-3.26 38.94-5.05 38.17-7.6 37.4-10.16 37.4-13.33L37.4-13.33Q37.4-16.48 38.21-18.99 39.01-21.51 40.52-23.3 42.04-25.1 44.16-26.05 46.29-27 48.92-27L48.92-27Q51.44-27 53.26-26.06 55.08-25.12 56.2-23.73L56.2-23.73 56.39-26.42 60.18-26.42 60.18-1.27Q60.18 2.05 59.52 4.52 58.86 6.98 57.46 8.62 56.05 10.25 53.78 11.07 51.51 11.89 48.29 11.89ZM49.24-2.81L49.24-2.81Q50.29-2.81 51.27-2.99 52.24-3.17 53.1-3.53 53.95-3.88 54.67-4.42 55.39-4.96 55.91-5.66L55.91-5.66 55.91-20.41Q55.3-21.26 54.58-21.88 53.85-22.49 53.01-22.89 52.17-23.29 51.22-23.49 50.27-23.68 49.19-23.68L49.19-23.68Q47.39-23.68 46.03-22.97 44.68-22.27 43.76-20.94 42.84-19.6 42.39-17.69 41.94-15.77 41.94-13.35L41.94-13.35Q41.94-10.86 42.38-8.91 42.82-6.96 43.72-5.6 44.63-4.25 46.01-3.53 47.39-2.81 49.24-2.81ZM79.66 0.49L79.66 0.49Q76.09 0.49 73.22-1.15 70.36-2.78 68.68-5.85 67.01-8.91 67.01-13.13L67.01-13.13Q67.01-17.53 68.65-20.63 70.28-23.73 73.04-25.37 75.8-27 79.12-27L79.12-27Q82.37-27 84.66-25.56 86.96-24.12 88.19-21.46 89.42-18.8 89.42-15.14L89.42-15.14Q89.42-14.77 89.36-14.14 89.3-13.5 89.25-12.99 89.2-12.48 89.2-12.43L89.2-12.43 71.55-12.43Q71.75-9.06 72.91-6.93 74.07-4.81 75.96-3.81 77.85-2.81 80.22-2.81L80.22-2.81Q82.49-2.81 84.1-3.45 85.71-4.1 87.35-5.03L87.35-5.03 87.67-5.03 88.69-2.12Q87.06-1 84.75-0.26 82.44 0.49 79.66 0.49ZM71.63-15.31L71.63-15.31 85.62-15.31Q85.57-19.29 84.04-21.5 82.51-23.71 79.34-23.71L79.34-23.71Q76.14-23.71 74.06-21.45 71.97-19.19 71.63-15.31ZM100.43 0L95.99 0 95.99-26.42 99.68-26.42 100.14-21.26Q101.36-24.19 103.59-25.6 105.83-27 109.05-27L109.05-27Q113.52-27 115.62-24.13 117.72-21.26 117.72-15.92L117.72-15.92 117.72 0 113.3 0 113.3-16.24Q113.3-18.48 112.83-20.15 112.37-21.83 111.25-22.75 110.12-23.68 108.12-23.68L108.12-23.68Q106.07-23.68 104.62-23 103.17-22.31 102.24-21.11 101.31-19.9 100.87-18.31 100.43-16.72 100.43-14.94L100.43-14.94 100.43 0ZM136.37 0.49L136.37 0.49Q132.7 0.49 130.01-1.2 127.31-2.88 125.83-5.97 124.36-9.06 124.36-13.26L124.36-13.26Q124.36-17.48 125.83-20.56 127.31-23.63 130.01-25.32 132.7-27 136.37-27L136.37-27Q139.27-27 141.18-26.16 143.08-25.32 144.2-24.02 145.33-22.73 145.89-21.39L145.89-21.39 143.13-19.8 142.81-19.8Q141.91-21.46 140.48-22.56 139.05-23.66 136.56-23.66L136.56-23.66Q134.05-23.66 132.34-22.42 130.63-21.19 129.78-18.86 128.92-16.53 128.92-13.26L128.92-13.26Q128.92-10.01 129.78-7.68 130.63-5.35 132.33-4.1 134.02-2.86 136.56-2.86L136.56-2.86Q139.05-2.86 140.47-3.92 141.88-4.98 142.79-6.64L142.79-6.64 143.11-6.64 145.89-5.13Q145.33-3.78 144.2-2.49 143.08-1.2 141.18-0.35 139.27 0.49 136.37 0.49ZM174.52-26.42L159.92 10.11 156.12 9.13 160.02-1.07 149.04-26.42 153.67-26.42 162.22-5.93 170.25-26.42 174.52-26.42Z" opacity="1" transform="matrix(1,0,0,1,0,0)" fill="white" class="wordmark-text-0" id="SvgjsPath1251"/></svg></g></svg></g></svg></g></svg></g><g transform="matrix(1,0,0,1,421.12306387346314,0)"><svg viewBox="0 0 112.46373180698176 112.41115447925489" height="112.41115447925489" width="112.46373180698176"><g><svg xmlns="http://www.w3.org/2000/svg" xmlns:xlink="http://www.w3.org/1999/xlink" version="1.1" x="0" y="0" viewBox="0.7607695154586737 0.7749999999999999 30.439230484541326 30.425" enable-background="new 0 0 32 32" xml:space="preserve" height="112.41115447925489" width="112.46373180698176" class="icon-icon-0" data-fill-palette-color="accent" id="SvgjsSvg1250"><g fill="black"><g fill="black"><path fill="black" d="M1.5 31.2C1.3 31.2 1.1 31.1 1 31 0.8 30.8 0.7 30.6 0.8 30.3L4.5 11.2C4.6 10.9 4.8 10.6 5.1 10.6L14.7 9.3C14.9 9.3 15.2 9.3 15.3 9.5L22.5 16.7C22.7 16.9 22.7 17.1 22.7 17.3L21.4 26.9C21.4 27.2 21.1 27.5 20.8 27.5L1.6 31.2zM5.8 12.1L2.4 29.6 19.9 26.2 21.1 17.5 14.4 10.8z"/></g><g fill="black"><rect x="5.2" y="19.8" transform="matrix(-0.7071 -0.7071 0.7071 -0.7071 -8.3465 48.7211)" fill="black" width="1.5" height="12.6"/></g><g fill="black"><path fill="black" d="M12 23.1C11.2 23.1 10.4 22.8 9.8 22.2S8.9 20.9 8.9 20C8.9 19.2 9.2 18.4 9.8 17.8 11 16.6 13 16.6 14.1 17.8 15.3 19 15.3 20.9 14.1 22.1 13.6 22.8 12.8 23.1 12 23.1M12 18.4C11.6 18.4 11.2 18.6 10.9 18.9S10.4 19.6 10.4 20 10.6 20.8 10.9 21.1C11.5 21.7 12.5 21.7 13.1 21.1S13.7 19.5 13.1 18.9C12.8 18.6 12.4 18.4 12 18.4"/></g><g fill="black"><path fill="black" d="M23.8 18.7C22.9 18.7 22 18.3 21.4 17.7L14.3 10.6C13 9.3 13 7.1 14.3 5.8L19.1 1C19.4 0.7 19.9 0.7 20.2 1L31 11.8C31.1 11.9 31.2 12.1 31.2 12.3S31.1 12.7 31 12.8L26.1 17.7C25.5 18.4 24.7 18.7 23.8 18.7M19.7 2.6L15.4 6.9C14.7 7.6 14.7 8.9 15.4 9.6L22.5 16.7C23.2 17.4 24.5 17.4 25.2 16.7L29.5 12.4z"/></g></g></svg></g></svg></g></svg></g><defs><mask/></defs></svg><rect width="395.52" height="83.32451286193682" fill="black" stroke="none" visibility="hidden"/></g></mask><linearGradient x1="0" x2="1" y1="0.578" y2="0.595" id="a83e5936-0172-46c6-aefd-c218d391ffd5"><stop stop-color="#6ee2f5" offset="0"/><stop stop-color="#6454f0" offset="1"/></linearGradient><rect width="395.52" height="83.32451286193682" fill="url(#a83e5936-0172-46c6-aefd-c218d391ffd5)" mask="url(#7dd72466-e1f3-42a4-808c-d48bb119957e)" data-fill-palette-color="primary"/><mask id="0c4d1cb2-d51b-4a10-a2b5-d53f5747f28a"><g id="SvgjsG1273"><svg viewBox="0 0 395.52 83.32451286193682" height="83.32451286193682" width="395.52"><g><svg viewBox="0 0 533.5867956804449 112.41115447925489" height="83.32451286193682" width="395.52"><g transform="matrix(1,0,0,1,0,1.9792605588484449)"><svg viewBox="0 0 395.52 108.452633361558" height="108.452633361558" width="395.52"><g id="SvgjsG1272"><svg viewBox="0 0 395.52 108.452633361558" height="108.452633361558" width="395.52" id="SvgjsSvg1271"><g><svg viewBox="0 0 395.52 108.452633361558" height="108.452633361558" width="395.52"><g transform="matrix(1,0,0,1,0,0)"><svg width="395.52" viewBox="1.54 -35.55 172.98000000000002 47.44" height="108.452633361558" data-palette-color="url(#a83e5936-0172-46c6-aefd-c218d391ffd5)"/></g></svg></g></svg></g></svg></g><g transform="matrix(1,0,0,1,421.12306387346314,0)"><svg viewBox="0 0 112.46373180698176 112.41115447925489" height="112.41115447925489" width="112.46373180698176"><g><svg xmlns="http://www.w3.org/2000/svg" xmlns:xlink="http://www.w3.org/1999/xlink" version="1.1" x="0" y="0" viewBox="0.7607695154586737 0.7749999999999999 30.439230484541326 30.425" enable-background="new 0 0 32 32" xml:space="preserve" height="112.41115447925489" width="112.46373180698176" class="icon-icon-0" data-fill-palette-color="accent" id="SvgjsSvg1270"><g fill="white"><g fill="white"><path fill="white" d="M1.5 31.2C1.3 31.2 1.1 31.1 1 31 0.8 30.8 0.7 30.6 0.8 30.3L4.5 11.2C4.6 10.9 4.8 10.6 5.1 10.6L14.7 9.3C14.9 9.3 15.2 9.3 15.3 9.5L22.5 16.7C22.7 16.9 22.7 17.1 22.7 17.3L21.4 26.9C21.4 27.2 21.1 27.5 20.8 27.5L1.6 31.2zM5.8 12.1L2.4 29.6 19.9 26.2 21.1 17.5 14.4 10.8z"/></g><g fill="white"><rect x="5.2" y="19.8" transform="matrix(-0.7071 -0.7071 0.7071 -0.7071 -8.3465 48.7211)" fill="white" width="1.5" height="12.6"/></g><g fill="white"><path fill="white" d="M12 23.1C11.2 23.1 10.4 22.8 9.8 22.2S8.9 20.9 8.9 20C8.9 19.2 9.2 18.4 9.8 17.8 11 16.6 13 16.6 14.1 17.8 15.3 19 15.3 20.9 14.1 22.1 13.6 22.8 12.8 23.1 12 23.1M12 18.4C11.6 18.4 11.2 18.6 10.9 18.9S10.4 19.6 10.4 20 10.6 20.8 10.9 21.1C11.5 21.7 12.5 21.7 13.1 21.1S13.7 19.5 13.1 18.9C12.8 18.6 12.4 18.4 12 18.4"/></g><g fill="white"><path fill="white" d="M23.8 18.7C22.9 18.7 22 18.3 21.4 17.7L14.3 10.6C13 9.3 13 7.1 14.3 5.8L19.1 1C19.4 0.7 19.9 0.7 20.2 1L31 11.8C31.1 11.9 31.2 12.1 31.2 12.3S31.1 12.7 31 12.8L26.1 17.7C25.5 18.4 24.7 18.7 23.8 18.7M19.7 2.6L15.4 6.9C14.7 7.6 14.7 8.9 15.4 9.6L22.5 16.7C23.2 17.4 24.5 17.4 25.2 16.7L29.5 12.4z"/></g></g></svg></g></svg></g></svg></g><defs><mask/></defs><mask><g id="SvgjsG1269"><svg viewBox="0 0 395.52 83.32451286193682" height="83.32451286193682" width="395.52"><g><svg viewBox="0 0 533.5867956804449 112.41115447925489" height="83.32451286193682" width="395.52"><g transform="matrix(1,0,0,1,0,1.9792605588484449)"><svg viewBox="0 0 395.52 108.452633361558" height="108.452633361558" width="395.52"><g id="SvgjsG1268"><svg viewBox="0 0 395.52 108.452633361558" height="108.452633361558" width="395.52" id="SvgjsSvg1267"><g><svg viewBox="0 0 395.52 108.452633361558" height="108.452633361558" width="395.52"><g transform="matrix(1,0,0,1,0,0)"><svg width="395.52" viewBox="1.54 -35.55 172.98000000000002 47.44" height="108.452633361558" data-palette-color="url(#a83e5936-0172-46c6-aefd-c218d391ffd5)"><path d="M6.23 0L1.54 0 14.84-35.55 19.68-35.55 33.11 0 28.39 0 24.29-11.06 10.3-11.06 6.23 0ZM17.29-30.96L11.4-14.6 23.19-14.6 17.29-30.96ZM48.29 11.89L48.29 11.89Q46.04 11.89 43.93 11.49 41.82 11.08 40.26 10.52L40.26 10.52 40.62 7.06 41.18 7.06Q42.7 7.69 44.61 8.06 46.53 8.42 48.24 8.42L48.24 8.42Q50.73 8.42 52.46 7.65 54.2 6.88 55.1 5.02 56 3.15 56-0.1L56-0.1Q56-0.66 55.99-1.2 55.98-1.73 55.98-2.27L55.98-2.27Q54.49-0.71 52.55-0.13 50.61 0.44 48.83 0.44L48.83 0.44Q46.12 0.44 43.99-0.51 41.87-1.46 40.4-3.26 38.94-5.05 38.17-7.6 37.4-10.16 37.4-13.33L37.4-13.33Q37.4-16.48 38.21-18.99 39.01-21.51 40.52-23.3 42.04-25.1 44.16-26.05 46.29-27 48.92-27L48.92-27Q51.44-27 53.26-26.06 55.08-25.12 56.2-23.73L56.2-23.73 56.39-26.42 60.18-26.42 60.18-1.27Q60.18 2.05 59.52 4.52 58.86 6.98 57.46 8.62 56.05 10.25 53.78 11.07 51.51 11.89 48.29 11.89ZM49.24-2.81L49.24-2.81Q50.29-2.81 51.27-2.99 52.24-3.17 53.1-3.53 53.95-3.88 54.67-4.42 55.39-4.96 55.91-5.66L55.91-5.66 55.91-20.41Q55.3-21.26 54.58-21.88 53.85-22.49 53.01-22.89 52.17-23.29 51.22-23.49 50.27-23.68 49.19-23.68L49.19-23.68Q47.39-23.68 46.03-22.97 44.68-22.27 43.76-20.94 42.84-19.6 42.39-17.69 41.94-15.77 41.94-13.35L41.94-13.35Q41.94-10.86 42.38-8.91 42.82-6.96 43.72-5.6 44.63-4.25 46.01-3.53 47.39-2.81 49.24-2.81ZM79.66 0.49L79.66 0.49Q76.09 0.49 73.22-1.15 70.36-2.78 68.68-5.85 67.01-8.91 67.01-13.13L67.01-13.13Q67.01-17.53 68.65-20.63 70.28-23.73 73.04-25.37 75.8-27 79.12-27L79.12-27Q82.37-27 84.66-25.56 86.96-24.12 88.19-21.46 89.42-18.8 89.42-15.14L89.42-15.14Q89.42-14.77 89.36-14.14 89.3-13.5 89.25-12.99 89.2-12.48 89.2-12.43L89.2-12.43 71.55-12.43Q71.75-9.06 72.91-6.93 74.07-4.81 75.96-3.81 77.85-2.81 80.22-2.81L80.22-2.81Q82.49-2.81 84.1-3.45 85.71-4.1 87.35-5.03L87.35-5.03 87.67-5.03 88.69-2.12Q87.06-1 84.75-0.26 82.44 0.49 79.66 0.49ZM71.63-15.31L71.63-15.31 85.62-15.31Q85.57-19.29 84.04-21.5 82.51-23.71 79.34-23.71L79.34-23.71Q76.14-23.71 74.06-21.45 71.97-19.19 71.63-15.31ZM100.43 0L95.99 0 95.99-26.42 99.68-26.42 100.14-21.26Q101.36-24.19 103.59-25.6 105.83-27 109.05-27L109.05-27Q113.52-27 115.62-24.13 117.72-21.26 117.72-15.92L117.72-15.92 117.72 0 113.3 0 113.3-16.24Q113.3-18.48 112.83-20.15 112.37-21.83 111.25-22.75 110.12-23.68 108.12-23.68L108.12-23.68Q106.07-23.68 104.62-23 103.17-22.31 102.24-21.11 101.31-19.9 100.87-18.31 100.43-16.72 100.43-14.94L100.43-14.94 100.43 0ZM136.37 0.49L136.37 0.49Q132.7 0.49 130.01-1.2 127.31-2.88 125.83-5.97 124.36-9.06 124.36-13.26L124.36-13.26Q124.36-17.48 125.83-20.56 127.31-23.63 130.01-25.32 132.7-27 136.37-27L136.37-27Q139.27-27 141.18-26.16 143.08-25.32 144.2-24.02 145.33-22.73 145.89-21.39L145.89-21.39 143.13-19.8 142.81-19.8Q141.91-21.46 140.48-22.56 139.05-23.66 136.56-23.66L136.56-23.66Q134.05-23.66 132.34-22.42 130.63-21.19 129.78-18.86 128.92-16.53 128.92-13.26L128.92-13.26Q128.92-10.01 129.78-7.68 130.63-5.35 132.33-4.1 134.02-2.86 136.56-2.86L136.56-2.86Q139.05-2.86 140.47-3.92 141.88-4.98 142.79-6.64L142.79-6.64 143.11-6.64 145.89-5.13Q145.33-3.78 144.2-2.49 143.08-1.2 141.18-0.35 139.27 0.49 136.37 0.49ZM174.52-26.42L159.92 10.11 156.12 9.13 160.02-1.07 149.04-26.42 153.67-26.42 162.22-5.93 170.25-26.42 174.52-26.42Z" opacity="1" transform="matrix(1,0,0,1,0,0)" fill="black" class="wordmark-text-0" id="SvgjsPath1266"/></svg></g></svg></g></svg></g></svg></g><g transform="matrix(1,0,0,1,421.12306387346314,0)"><svg viewBox="0 0 112.46373180698176 112.41115447925489" height="112.41115447925489" width="112.46373180698176"><g><svg xmlns="http://www.w3.org/2000/svg" xmlns:xlink="http://www.w3.org/1999/xlink" version="1.1" x="0" y="0" viewBox="0.7607695154586737 0.7749999999999999 30.439230484541326 30.425" enable-background="new 0 0 32 32" xml:space="preserve" height="112.41115447925489" width="112.46373180698176" class="icon-icon-0" data-fill-palette-color="accent" id="SvgjsSvg1265"><g fill="black"><g fill="black"><path fill="black" d="M1.5 31.2C1.3 31.2 1.1 31.1 1 31 0.8 30.8 0.7 30.6 0.8 30.3L4.5 11.2C4.6 10.9 4.8 10.6 5.1 10.6L14.7 9.3C14.9 9.3 15.2 9.3 15.3 9.5L22.5 16.7C22.7 16.9 22.7 17.1 22.7 17.3L21.4 26.9C21.4 27.2 21.1 27.5 20.8 27.5L1.6 31.2zM5.8 12.1L2.4 29.6 19.9 26.2 21.1 17.5 14.4 10.8z"/></g><g fill="black"><rect x="5.2" y="19.8" transform="matrix(-0.7071 -0.7071 0.7071 -0.7071 -8.3465 48.7211)" fill="black" width="1.5" height="12.6"/></g><g fill="black"><path fill="black" d="M12 23.1C11.2 23.1 10.4 22.8 9.8 22.2S8.9 20.9 8.9 20C8.9 19.2 9.2 18.4 9.8 17.8 11 16.6 13 16.6 14.1 17.8 15.3 19 15.3 20.9 14.1 22.1 13.6 22.8 12.8 23.1 12 23.1M12 18.4C11.6 18.4 11.2 18.6 10.9 18.9S10.4 19.6 10.4 20 10.6 20.8 10.9 21.1C11.5 21.7 12.5 21.7 13.1 21.1S13.7 19.5 13.1 18.9C12.8 18.6 12.4 18.4 12 18.4"/></g><g fill="black"><path fill="black" d="M23.8 18.7C22.9 18.7 22 18.3 21.4 17.7L14.3 10.6C13 9.3 13 7.1 14.3 5.8L19.1 1C19.4 0.7 19.9 0.7 20.2 1L31 11.8C31.1 11.9 31.2 12.1 31.2 12.3S31.1 12.7 31 12.8L26.1 17.7C25.5 18.4 24.7 18.7 23.8 18.7M19.7 2.6L15.4 6.9C14.7 7.6 14.7 8.9 15.4 9.6L22.5 16.7C23.2 17.4 24.5 17.4 25.2 16.7L29.5 12.4z"/></g></g></svg></g></svg></g></svg></g><defs><mask/></defs></svg><rect width="395.52" height="83.32451286193682" fill="black" stroke="none" visibility="hidden"/></g></mask></svg><rect width="395.52" height="83.32451286193682" fill="black" stroke="none" visibility="hidden"/></g></mask><linearGradient x1="0" x2="1" y1="0.578" y2="0.595" id="9e311664-5ab1-4725-9c3a-4f0f2525d891"><stop stop-color="#6ee2f5" offset="0"/><stop stop-color="#6454f0" offset="1"/></linearGradient><rect width="395.52" height="83.32451286193682" fill="url(#9e311664-5ab1-4725-9c3a-4f0f2525d891)" mask="url(#0c4d1cb2-d51b-4a10-a2b5-d53f5747f28a)" data-fill-palette-color="accent"/></svg>