<svg xmlns="http://www.w3.org/2000/svg" viewBox="0 0 395.52 51.46230843746841" height="51.46230843746841" width="395.52"><g><svg viewBox="0 0 470.74998324746673 61.250710039477696" height="51.46230843746841" width="395.52"><g transform="matrix(1,0,0,1,0,1.078461609474651)"><svg viewBox="0 0 395.52 59.09378682052839" height="59.09378682052839" width="395.52"><g id="textblocktransform"><svg viewBox="0 0 395.52 59.09378682052839" height="59.09378682052839" width="395.52" id="textblock"><g><svg viewBox="0 0 395.52 59.09378682052839" height="59.09378682052839" width="395.52"><g transform="matrix(1,0,0,1,0,0)"><svg width="395.52" viewBox="4.96 -35.55 241.17 36.04" height="59.09378682052839" data-palette-color="url(#06505f42-62c2-48f3-8466-db3f58ba4769)"/></g></svg></g></svg></g></svg></g><g transform="matrix(1,0,0,1,409.470624817443,0)"><svg viewBox="0 0 61.27935843002369 61.250710039477696" height="61.250710039477696" width="61.27935843002369"><g><svg xmlns="http://www.w3.org/2000/svg" xmlns:xlink="http://www.w3.org/1999/xlink" version="1.1" x="0" y="0" viewBox="0.7607695154586737 0.7749999999999999 30.439230484541326 30.425" enable-background="new 0 0 32 32" xml:space="preserve" height="61.250710039477696" width="61.27935843002369" class="icon-icon-0" data-fill-palette-color="accent" id="icon-0"/></g></svg></g></svg></g><defs/><mask id="7935f4e1-bf7c-4888-bf20-142d56b450f4"><g id="SvgjsG1035"><svg viewBox="0 0 395.52 51.46230843746841" height="51.46230843746841" width="395.52"><g><svg viewBox="0 0 470.74998324746673 61.250710039477696" height="51.46230843746841" width="395.52"><g transform="matrix(1,0,0,1,0,1.078461609474651)"><svg viewBox="0 0 395.52 59.09378682052839" height="59.09378682052839" width="395.52"><g id="SvgjsG1034"><svg viewBox="0 0 395.52 59.09378682052839" height="59.09378682052839" width="395.52" id="SvgjsSvg1033"><g><svg viewBox="0 0 395.52 59.09378682052839" height="59.09378682052839" width="395.52"><g transform="matrix(1,0,0,1,0,0)"><svg width="395.52" viewBox="4.96 -35.55 241.17 36.04" height="59.09378682052839" data-palette-color="url(#06505f42-62c2-48f3-8466-db3f58ba4769)"><path d="M9.3 0L4.96 0 4.96-35.55 9.69-35.55 28.25-6.08 27.98-16.31 27.98-35.55 32.25-35.55 32.25 0 27.32 0 8.89-29.15 9.3-18.07 9.3 0ZM52.05 0.49L52.05 0.49Q48.22 0.49 45.54-1.23 42.87-2.95 41.48-6.04 40.09-9.13 40.09-13.23L40.09-13.23Q40.09-17.43 41.45-20.52 42.82-23.61 45.49-25.31 48.17-27 52.05-27L52.05-27Q55.93-27 58.59-25.31 61.25-23.61 62.62-20.52 63.99-17.43 63.99-13.23L63.99-13.23Q63.99-9.13 62.6-6.04 61.2-2.95 58.54-1.23 55.88 0.49 52.05 0.49ZM52.05-2.81L52.05-2.81Q54.64-2.81 56.26-4.16 57.88-5.52 58.65-7.86 59.42-10.21 59.42-13.21L59.42-13.21Q59.42-16.28 58.65-18.64 57.88-21 56.25-22.34 54.61-23.68 52.05-23.68L52.05-23.68Q48.19-23.68 46.42-20.75 44.65-17.82 44.65-13.21L44.65-13.21Q44.65-10.21 45.42-7.86 46.19-5.52 47.82-4.16 49.46-2.81 52.05-2.81ZM82.17 0L77.66 0 68.09-26.42 72.65-26.42Q74.46-21.09 76.28-15.76 78.1-10.42 79.98-5.18L79.98-5.18Q81.78-10.5 83.56-15.81 85.35-21.12 87.13-26.42L87.13-26.42 91.6-26.42 82.17 0ZM103.92 0.49L103.92 0.49Q100.14 0.49 97.77-1.42 95.4-3.32 95.4-7.18L95.4-7.18Q95.4-8.94 96.03-10.3 96.65-11.67 97.92-12.61 99.19-13.55 101.19-14.04 103.19-14.53 105.93-14.53L105.93-14.53 111.88-14.53 111.88-17.58Q111.88-20.78 110.44-22.2 109-23.63 106.1-23.63L106.1-23.63Q104.22-23.63 101.86-23.03 99.5-22.44 97.62-21.14L97.62-21.14 96.33-24.51Q97.67-25.37 99.3-25.92 100.92-26.46 102.69-26.73 104.46-27 106.22-27L106.22-27Q109.2-27 111.47-26.05 113.74-25.1 115.02-22.95 116.3-20.8 116.3-17.21L116.3-17.21 116.3 0 112.59 0 112.27-3.25Q111.22-2 109.98-1.17 108.73-0.34 107.23 0.07 105.73 0.49 103.92 0.49ZM104.61-2.66L104.61-2.66Q106.95-2.66 108.81-3.64 110.66-4.61 111.88-6.18L111.88-6.18 111.88-11.72 106.73-11.72Q104.05-11.72 102.48-11.21 100.92-10.69 100.27-9.68 99.63-8.67 99.63-7.13L99.63-7.13Q99.63-4.64 101.08-3.65 102.53-2.66 104.61-2.66ZM135.81 0L131.31 0 121.87-35.55 126.11-35.55 133.78-6.32 142.13-34.84 146.57-34.84 154.85-6.01 161.83-35.55 166.42-35.55 157.19 0 152.63 0 144.37-29.08 135.81 0ZM178.65 0.49L178.65 0.49Q174.87 0.49 172.5-1.42 170.13-3.32 170.13-7.18L170.13-7.18Q170.13-8.94 170.75-10.3 171.37-11.67 172.64-12.61 173.91-13.55 175.92-14.04 177.92-14.53 180.65-14.53L180.65-14.53 186.61-14.53 186.61-17.58Q186.61-20.78 185.17-22.2 183.73-23.63 180.82-23.63L180.82-23.63Q178.94-23.63 176.59-23.03 174.23-22.44 172.35-21.14L172.35-21.14 171.06-24.51Q172.4-25.37 174.02-25.92 175.65-26.46 177.42-26.73 179.19-27 180.94-27L180.94-27Q183.92-27 186.19-26.05 188.46-25.1 189.75-22.95 191.03-20.8 191.03-17.21L191.03-17.21 191.03 0 187.32 0 187-3.25Q185.95-2 184.7-1.17 183.46-0.34 181.96 0.07 180.46 0.49 178.65 0.49ZM179.33-2.66L179.33-2.66Q181.68-2.66 183.53-3.64 185.39-4.61 186.61-6.18L186.61-6.18 186.61-11.72 181.46-11.72Q178.77-11.72 177.21-11.21 175.65-10.69 175-9.68 174.35-8.67 174.35-7.13L174.35-7.13Q174.35-4.64 175.81-3.65 177.26-2.66 179.33-2.66ZM210.29 0L205.77 0 196.2-26.42 200.77-26.42Q202.57-21.09 204.39-15.76 206.21-10.42 208.09-5.18L208.09-5.18Q209.9-10.5 211.68-15.81 213.46-21.12 215.24-26.42L215.24-26.42 219.71-26.42 210.29 0ZM236.36 0.49L236.36 0.49Q232.8 0.49 229.93-1.15 227.06-2.78 225.39-5.85 223.71-8.91 223.71-13.13L223.71-13.13Q223.71-17.53 225.35-20.63 226.98-23.73 229.74-25.37 232.5-27 235.82-27L235.82-27Q239.07-27 241.36-25.56 243.66-24.12 244.89-21.46 246.13-18.8 246.13-15.14L246.13-15.14Q246.13-14.77 246.06-14.14 246-13.5 245.95-12.99 245.91-12.48 245.91-12.43L245.91-12.43 228.25-12.43Q228.45-9.06 229.61-6.93 230.77-4.81 232.66-3.81 234.55-2.81 236.92-2.81L236.92-2.81Q239.19-2.81 240.8-3.45 242.41-4.1 244.05-5.03L244.05-5.03 244.37-5.03 245.39-2.12Q243.76-1 241.45-0.26 239.14 0.49 236.36 0.49ZM228.33-15.31L228.33-15.31 242.32-15.31Q242.27-19.29 240.74-21.5 239.22-23.71 236.04-23.71L236.04-23.71Q232.84-23.71 230.76-21.45 228.67-19.19 228.33-15.31Z" opacity="1" transform="matrix(1,0,0,1,0,0)" fill="white" class="wordmark-text-0" id="SvgjsPath1032"/></svg></g></svg></g></svg></g></svg></g><g transform="matrix(1,0,0,1,409.470624817443,0)"><svg viewBox="0 0 61.27935843002369 61.250710039477696" height="61.250710039477696" width="61.27935843002369"><g><svg xmlns="http://www.w3.org/2000/svg" xmlns:xlink="http://www.w3.org/1999/xlink" version="1.1" x="0" y="0" viewBox="0.7607695154586737 0.7749999999999999 30.439230484541326 30.425" enable-background="new 0 0 32 32" xml:space="preserve" height="61.250710039477696" width="61.27935843002369" class="icon-icon-0" data-fill-palette-color="accent" id="SvgjsSvg1031"><g fill="black"><g fill="black"><path fill="black" d="M1.5 31.2C1.3 31.2 1.1 31.1 1 31 0.8 30.8 0.7 30.6 0.8 30.3L4.5 11.2C4.6 10.9 4.8 10.6 5.1 10.6L14.7 9.3C14.9 9.3 15.2 9.3 15.3 9.5L22.5 16.7C22.7 16.9 22.7 17.1 22.7 17.3L21.4 26.9C21.4 27.2 21.1 27.5 20.8 27.5L1.6 31.2zM5.8 12.1L2.4 29.6 19.9 26.2 21.1 17.5 14.4 10.8z"/></g><g fill="black"><rect x="5.2" y="19.8" transform="matrix(-0.7071 -0.7071 0.7071 -0.7071 -8.3465 48.7211)" fill="black" width="1.5" height="12.6"/></g><g fill="black"><path fill="black" d="M12 23.1C11.2 23.1 10.4 22.8 9.8 22.2S8.9 20.9 8.9 20C8.9 19.2 9.2 18.4 9.8 17.8 11 16.6 13 16.6 14.1 17.8 15.3 19 15.3 20.9 14.1 22.1 13.6 22.8 12.8 23.1 12 23.1M12 18.4C11.6 18.4 11.2 18.6 10.9 18.9S10.4 19.6 10.4 20 10.6 20.8 10.9 21.1C11.5 21.7 12.5 21.7 13.1 21.1S13.7 19.5 13.1 18.9C12.8 18.6 12.4 18.4 12 18.4"/></g><g fill="black"><path fill="black" d="M23.8 18.7C22.9 18.7 22 18.3 21.4 17.7L14.3 10.6C13 9.3 13 7.1 14.3 5.8L19.1 1C19.4 0.7 19.9 0.7 20.2 1L31 11.8C31.1 11.9 31.2 12.1 31.2 12.3S31.1 12.7 31 12.8L26.1 17.7C25.5 18.4 24.7 18.7 23.8 18.7M19.7 2.6L15.4 6.9C14.7 7.6 14.7 8.9 15.4 9.6L22.5 16.7C23.2 17.4 24.5 17.4 25.2 16.7L29.5 12.4z"/></g></g></svg></g></svg></g></svg></g><defs><mask/></defs></svg><rect width="395.52" height="51.46230843746841" fill="black" stroke="none" visibility="hidden"/></g></mask><linearGradient x1="0" x2="1" y1="0.578" y2="0.595" id="06505f42-62c2-48f3-8466-db3f58ba4769"><stop stop-color="#6ee2f5" offset="0"/><stop stop-color="#6454f0" offset="1"/></linearGradient><rect width="395.52" height="51.46230843746841" fill="url(#06505f42-62c2-48f3-8466-db3f58ba4769)" mask="url(#7935f4e1-bf7c-4888-bf20-142d56b450f4)" data-fill-palette-color="primary"/><mask id="0999eb80-8672-4043-9f6f-48367cdbad5f"><g id="SvgjsG1054"><svg viewBox="0 0 395.52 51.46230843746841" height="51.46230843746841" width="395.52"><g><svg viewBox="0 0 470.74998324746673 61.250710039477696" height="51.46230843746841" width="395.52"><g transform="matrix(1,0,0,1,0,1.078461609474651)"><svg viewBox="0 0 395.52 59.09378682052839" height="59.09378682052839" width="395.52"><g id="SvgjsG1053"><svg viewBox="0 0 395.52 59.09378682052839" height="59.09378682052839" width="395.52" id="SvgjsSvg1052"><g><svg viewBox="0 0 395.52 59.09378682052839" height="59.09378682052839" width="395.52"><g transform="matrix(1,0,0,1,0,0)"><svg width="395.52" viewBox="4.96 -35.55 241.17 36.04" height="59.09378682052839" data-palette-color="url(#06505f42-62c2-48f3-8466-db3f58ba4769)"/></g></svg></g></svg></g></svg></g><g transform="matrix(1,0,0,1,409.470624817443,0)"><svg viewBox="0 0 61.27935843002369 61.250710039477696" height="61.250710039477696" width="61.27935843002369"><g><svg xmlns="http://www.w3.org/2000/svg" xmlns:xlink="http://www.w3.org/1999/xlink" version="1.1" x="0" y="0" viewBox="0.7607695154586737 0.7749999999999999 30.439230484541326 30.425" enable-background="new 0 0 32 32" xml:space="preserve" height="61.250710039477696" width="61.27935843002369" class="icon-icon-0" data-fill-palette-color="accent" id="SvgjsSvg1051"><g fill="white"><g fill="white"><path fill="white" d="M1.5 31.2C1.3 31.2 1.1 31.1 1 31 0.8 30.8 0.7 30.6 0.8 30.3L4.5 11.2C4.6 10.9 4.8 10.6 5.1 10.6L14.7 9.3C14.9 9.3 15.2 9.3 15.3 9.5L22.5 16.7C22.7 16.9 22.7 17.1 22.7 17.3L21.4 26.9C21.4 27.2 21.1 27.5 20.8 27.5L1.6 31.2zM5.8 12.1L2.4 29.6 19.9 26.2 21.1 17.5 14.4 10.8z"/></g><g fill="white"><rect x="5.2" y="19.8" transform="matrix(-0.7071 -0.7071 0.7071 -0.7071 -8.3465 48.7211)" fill="white" width="1.5" height="12.6"/></g><g fill="white"><path fill="white" d="M12 23.1C11.2 23.1 10.4 22.8 9.8 22.2S8.9 20.9 8.9 20C8.9 19.2 9.2 18.4 9.8 17.8 11 16.6 13 16.6 14.1 17.8 15.3 19 15.3 20.9 14.1 22.1 13.6 22.8 12.8 23.1 12 23.1M12 18.4C11.6 18.4 11.2 18.6 10.9 18.9S10.4 19.6 10.4 20 10.6 20.8 10.9 21.1C11.5 21.7 12.5 21.7 13.1 21.1S13.7 19.5 13.1 18.9C12.8 18.6 12.4 18.4 12 18.4"/></g><g fill="white"><path fill="white" d="M23.8 18.7C22.9 18.7 22 18.3 21.4 17.7L14.3 10.6C13 9.3 13 7.1 14.3 5.8L19.1 1C19.4 0.7 19.9 0.7 20.2 1L31 11.8C31.1 11.9 31.2 12.1 31.2 12.3S31.1 12.7 31 12.8L26.1 17.7C25.5 18.4 24.7 18.7 23.8 18.7M19.7 2.6L15.4 6.9C14.7 7.6 14.7 8.9 15.4 9.6L22.5 16.7C23.2 17.4 24.5 17.4 25.2 16.7L29.5 12.4z"/></g></g></svg></g></svg></g></svg></g><defs><mask/></defs><mask><g id="SvgjsG1050"><svg viewBox="0 0 395.52 51.46230843746841" height="51.46230843746841" width="395.52"><g><svg viewBox="0 0 470.74998324746673 61.250710039477696" height="51.46230843746841" width="395.52"><g transform="matrix(1,0,0,1,0,1.078461609474651)"><svg viewBox="0 0 395.52 59.09378682052839" height="59.09378682052839" width="395.52"><g id="SvgjsG1049"><svg viewBox="0 0 395.52 59.09378682052839" height="59.09378682052839" width="395.52" id="SvgjsSvg1048"><g><svg viewBox="0 0 395.52 59.09378682052839" height="59.09378682052839" width="395.52"><g transform="matrix(1,0,0,1,0,0)"><svg width="395.52" viewBox="4.96 -35.55 241.17 36.04" height="59.09378682052839" data-palette-color="url(#06505f42-62c2-48f3-8466-db3f58ba4769)"><path d="M9.3 0L4.96 0 4.96-35.55 9.69-35.55 28.25-6.08 27.98-16.31 27.98-35.55 32.25-35.55 32.25 0 27.32 0 8.89-29.15 9.3-18.07 9.3 0ZM52.05 0.49L52.05 0.49Q48.22 0.49 45.54-1.23 42.87-2.95 41.48-6.04 40.09-9.13 40.09-13.23L40.09-13.23Q40.09-17.43 41.45-20.52 42.82-23.61 45.49-25.31 48.17-27 52.05-27L52.05-27Q55.93-27 58.59-25.31 61.25-23.61 62.62-20.52 63.99-17.43 63.99-13.23L63.99-13.23Q63.99-9.13 62.6-6.04 61.2-2.95 58.54-1.23 55.88 0.49 52.05 0.49ZM52.05-2.81L52.05-2.81Q54.64-2.81 56.26-4.16 57.88-5.52 58.65-7.86 59.42-10.21 59.42-13.21L59.42-13.21Q59.42-16.28 58.65-18.64 57.88-21 56.25-22.34 54.61-23.68 52.05-23.68L52.05-23.68Q48.19-23.68 46.42-20.75 44.65-17.82 44.65-13.21L44.65-13.21Q44.65-10.21 45.42-7.86 46.19-5.52 47.82-4.16 49.46-2.81 52.05-2.81ZM82.17 0L77.66 0 68.09-26.42 72.65-26.42Q74.46-21.09 76.28-15.76 78.1-10.42 79.98-5.18L79.98-5.18Q81.78-10.5 83.56-15.81 85.35-21.12 87.13-26.42L87.13-26.42 91.6-26.42 82.17 0ZM103.92 0.49L103.92 0.49Q100.14 0.49 97.77-1.42 95.4-3.32 95.4-7.18L95.4-7.18Q95.4-8.94 96.03-10.3 96.65-11.67 97.92-12.61 99.19-13.55 101.19-14.04 103.19-14.53 105.93-14.53L105.93-14.53 111.88-14.53 111.88-17.58Q111.88-20.78 110.44-22.2 109-23.63 106.1-23.63L106.1-23.63Q104.22-23.63 101.86-23.03 99.5-22.44 97.62-21.14L97.62-21.14 96.33-24.51Q97.67-25.37 99.3-25.92 100.92-26.46 102.69-26.73 104.46-27 106.22-27L106.22-27Q109.2-27 111.47-26.05 113.74-25.1 115.02-22.95 116.3-20.8 116.3-17.21L116.3-17.21 116.3 0 112.59 0 112.27-3.25Q111.22-2 109.98-1.17 108.73-0.34 107.23 0.07 105.73 0.49 103.92 0.49ZM104.61-2.66L104.61-2.66Q106.95-2.66 108.81-3.64 110.66-4.61 111.88-6.18L111.88-6.18 111.88-11.72 106.73-11.72Q104.05-11.72 102.48-11.21 100.92-10.69 100.27-9.68 99.63-8.67 99.63-7.13L99.63-7.13Q99.63-4.64 101.08-3.65 102.53-2.66 104.61-2.66ZM135.81 0L131.31 0 121.87-35.55 126.11-35.55 133.78-6.32 142.13-34.84 146.57-34.84 154.85-6.01 161.83-35.55 166.42-35.55 157.19 0 152.63 0 144.37-29.08 135.81 0ZM178.65 0.49L178.65 0.49Q174.87 0.49 172.5-1.42 170.13-3.32 170.13-7.18L170.13-7.18Q170.13-8.94 170.75-10.3 171.37-11.67 172.64-12.61 173.91-13.55 175.92-14.04 177.92-14.53 180.65-14.53L180.65-14.53 186.61-14.53 186.61-17.58Q186.61-20.78 185.17-22.2 183.73-23.63 180.82-23.63L180.82-23.63Q178.94-23.63 176.59-23.03 174.23-22.44 172.35-21.14L172.35-21.14 171.06-24.51Q172.4-25.37 174.02-25.92 175.65-26.46 177.42-26.73 179.19-27 180.94-27L180.94-27Q183.92-27 186.19-26.05 188.46-25.1 189.75-22.95 191.03-20.8 191.03-17.21L191.03-17.21 191.03 0 187.32 0 187-3.25Q185.95-2 184.7-1.17 183.46-0.34 181.96 0.07 180.46 0.49 178.65 0.49ZM179.33-2.66L179.33-2.66Q181.68-2.66 183.53-3.64 185.39-4.61 186.61-6.18L186.61-6.18 186.61-11.72 181.46-11.72Q178.77-11.72 177.21-11.21 175.65-10.69 175-9.68 174.35-8.67 174.35-7.13L174.35-7.13Q174.35-4.64 175.81-3.65 177.26-2.66 179.33-2.66ZM210.29 0L205.77 0 196.2-26.42 200.77-26.42Q202.57-21.09 204.39-15.76 206.21-10.42 208.09-5.18L208.09-5.18Q209.9-10.5 211.68-15.81 213.46-21.12 215.24-26.42L215.24-26.42 219.71-26.42 210.29 0ZM236.36 0.49L236.36 0.49Q232.8 0.49 229.93-1.15 227.06-2.78 225.39-5.85 223.71-8.91 223.71-13.13L223.71-13.13Q223.71-17.53 225.35-20.63 226.98-23.73 229.74-25.37 232.5-27 235.82-27L235.82-27Q239.07-27 241.36-25.56 243.66-24.12 244.89-21.46 246.13-18.8 246.13-15.14L246.13-15.14Q246.13-14.77 246.06-14.14 246-13.5 245.95-12.99 245.91-12.48 245.91-12.43L245.91-12.43 228.25-12.43Q228.45-9.06 229.61-6.93 230.77-4.81 232.66-3.81 234.55-2.81 236.92-2.81L236.92-2.81Q239.19-2.81 240.8-3.45 242.41-4.1 244.05-5.03L244.05-5.03 244.37-5.03 245.39-2.12Q243.76-1 241.45-0.26 239.14 0.49 236.36 0.49ZM228.33-15.31L228.33-15.31 242.32-15.31Q242.27-19.29 240.74-21.5 239.22-23.71 236.04-23.71L236.04-23.71Q232.84-23.71 230.76-21.45 228.67-19.19 228.33-15.31Z" opacity="1" transform="matrix(1,0,0,1,0,0)" fill="black" class="wordmark-text-0" id="SvgjsPath1047"/></svg></g></svg></g></svg></g></svg></g><g transform="matrix(1,0,0,1,409.470624817443,0)"><svg viewBox="0 0 61.27935843002369 61.250710039477696" height="61.250710039477696" width="61.27935843002369"><g><svg xmlns="http://www.w3.org/2000/svg" xmlns:xlink="http://www.w3.org/1999/xlink" version="1.1" x="0" y="0" viewBox="0.7607695154586737 0.7749999999999999 30.439230484541326 30.425" enable-background="new 0 0 32 32" xml:space="preserve" height="61.250710039477696" width="61.27935843002369" class="icon-icon-0" data-fill-palette-color="accent" id="SvgjsSvg1046"><g fill="black"><g fill="black"><path fill="black" d="M1.5 31.2C1.3 31.2 1.1 31.1 1 31 0.8 30.8 0.7 30.6 0.8 30.3L4.5 11.2C4.6 10.9 4.8 10.6 5.1 10.6L14.7 9.3C14.9 9.3 15.2 9.3 15.3 9.5L22.5 16.7C22.7 16.9 22.7 17.1 22.7 17.3L21.4 26.9C21.4 27.2 21.1 27.5 20.8 27.5L1.6 31.2zM5.8 12.1L2.4 29.6 19.9 26.2 21.1 17.5 14.4 10.8z"/></g><g fill="black"><rect x="5.2" y="19.8" transform="matrix(-0.7071 -0.7071 0.7071 -0.7071 -8.3465 48.7211)" fill="black" width="1.5" height="12.6"/></g><g fill="black"><path fill="black" d="M12 23.1C11.2 23.1 10.4 22.8 9.8 22.2S8.9 20.9 8.9 20C8.9 19.2 9.2 18.4 9.8 17.8 11 16.6 13 16.6 14.1 17.8 15.3 19 15.3 20.9 14.1 22.1 13.6 22.8 12.8 23.1 12 23.1M12 18.4C11.6 18.4 11.2 18.6 10.9 18.9S10.4 19.6 10.4 20 10.6 20.8 10.9 21.1C11.5 21.7 12.5 21.7 13.1 21.1S13.7 19.5 13.1 18.9C12.8 18.6 12.4 18.4 12 18.4"/></g><g fill="black"><path fill="black" d="M23.8 18.7C22.9 18.7 22 18.3 21.4 17.7L14.3 10.6C13 9.3 13 7.1 14.3 5.8L19.1 1C19.4 0.7 19.9 0.7 20.2 1L31 11.8C31.1 11.9 31.2 12.1 31.2 12.3S31.1 12.7 31 12.8L26.1 17.7C25.5 18.4 24.7 18.7 23.8 18.7M19.7 2.6L15.4 6.9C14.7 7.6 14.7 8.9 15.4 9.6L22.5 16.7C23.2 17.4 24.5 17.4 25.2 16.7L29.5 12.4z"/></g></g></svg></g></svg></g></svg></g><defs><mask/></defs></svg><rect width="395.52" height="51.46230843746841" fill="black" stroke="none" visibility="hidden"/></g></mask></svg><rect width="395.52" height="51.46230843746841" fill="black" stroke="none" visibility="hidden"/></g></mask><linearGradient x1="0" x2="1" y1="0.578" y2="0.595" id="0491a62c-503f-4d1c-a743-ac5e079a04ac"><stop stop-color="#6ee2f5" offset="0"/><stop stop-color="#6454f0" offset="1"/></linearGradient><rect width="395.52" height="51.46230843746841" fill="url(#0491a62c-503f-4d1c-a743-ac5e079a04ac)" mask="url(#0999eb80-8672-4043-9f6f-48367cdbad5f)" data-fill-palette-color="accent"/></svg>